<?xml version="1.0" standalone="no"?>
<!DOCTYPE svg PUBLIC "-//W3C//DTD SVG 1.1//EN" 
"http://www.w3.org/Graphics/SVG/1.1/DTD/svg11.dtd">

<svg width="100%" height="100%" version="1.1"
xmlns="http://www.w3.org/2000/svg">

<defs>
<linearGradient id="linearLeaf" x1="0%" y1="0%" x2="100%" y2="0%">
<stop offset="0%" style="stop-color:rgb(255,255,0);
stop-opacity:1"/>
<stop offset="100%" style="stop-color:rgb(255,0,0);
stop-opacity:1"/>
</linearGradient>
</defs>

<path d="M 100 100 Q 120 150 100 200" stroke="darkolivegreen" stroke-width="5px" stroke-linecap="round" fill="transparent"/>
<path d="M 100 200
           A 100 50 0 0 1 160 160
           A 100 50 0 0 1 100 200
           " stroke="black" fill="green" stroke-width="2" fill-opacity="0.5"/>
<path d="M 100 90
           A 10 20 -30 1 0 91.5 95
           A 10 20 -90 1 0 91.5 105
           A 10 20 -150 1 0 100 110
           A 10 20 150 1 0 108.5 105
           A 10 20 90 1 0 108.5 95
           A 10 20 30 1 0 100 90
           " fill="url(#linearLeaf)"/>
<circle cx="100" cy="100" r="10" fill="yellow" />
</svg>